<svg version="1.1" id="Layer_1" xmlns="http://www.w3.org/2000/svg" xmlns:xlink="http://www.w3.org/1999/xlink" x="0px" y="0px"
	 width="500px" height="500px" viewBox="0 0 500 500" enable-background="new 0 0 500 500" xml:space="preserve">
<path fill-rule="evenodd" clip-rule="evenodd" fill="#666666" d="M426.789,409.865c-0.192,1.239-0.361,2.483-0.58,3.719
	c-3.993,22.573-19.847,40.102-41.877,46.097c-26.446,7.196-54.538-4.929-67.051-29.916c-13.379-26.718-4.155-59.053,21.366-74.812
	c1.21-0.748,1.564-1.553,1.563-2.904c-0.03-59.318-0.066-118.636,0.016-177.954c0.013-9.472-3.698-17.039-10.529-23.272
	c-4.098-3.738-8.833-6.347-14.347-7.323c-1.645-0.292-3.338-0.422-5.009-0.43c-8.748-0.041-17.494-0.021-26.241-0.016
	c-0.566,0-1.131,0.053-1.822,0.086c0,19.164,0,38.202,0,57.338c-0.938-0.043-1.271-0.724-1.719-1.168
	c-10.62-10.597-21.227-21.208-31.835-31.818c-17.203-17.204-34.406-34.409-51.609-51.612c-0.476-0.476-0.962-0.941-1.663-1.625
	c-0.16,2.031-0.264,3.735-0.432,5.432c-1.232,12.456-6.141,23.298-14.428,32.63c-3.793,4.272-8.146,7.898-13.053,10.832
	c-0.855,0.511-1.288,1.075-1.152,2.067c0.047,0.341,0.007,0.694,0.007,1.041c0,61.635,0,123.27,0,184.906
	c0,0.347,0.041,0.701-0.007,1.041c-0.14,0.995,0.297,1.556,1.152,2.071c5.812,3.5,10.844,7.917,15.079,13.216
	c7.085,8.865,11.279,18.925,12.413,30.248c2.916,29.124-16.399,56.464-46.13,62.38c-32.616,6.49-62.513-14.884-68.355-45.73
	c-0.344-1.817-0.528-3.665-0.828-5.491c-0.101-0.615-0.333-1.208-0.505-1.812c0-2.548,0-5.097,0-7.646
	c0.22-0.885,0.487-1.763,0.647-2.659c0.205-1.138,0.267-2.302,0.488-3.436c3.263-16.682,12.106-29.58,26.4-38.729
	c1.202-0.77,1.719-1.514,1.718-2.992c-0.042-61.964-0.037-123.928-0.037-185.893c0-0.623,0-1.246,0-1.794
	c-0.494-0.323-0.829-0.548-1.17-0.764c-14.948-9.481-24.124-22.835-27.098-40.359c-0.279-1.644-0.631-3.274-0.949-4.912
	c0-2.549,0-5.098,0-7.646c0.188-0.665,0.438-1.318,0.551-1.994c0.351-2.111,0.538-4.255,0.986-6.344
	c5.636-26.282,28.035-44.31,53.216-45.629c13.614-0.713,26.098,2.658,37.138,10.652c14.085,10.198,22.038,24.081,23.912,41.398
	c0.189,1.751,0.278,3.512,0.442,5.638c28.962-28.963,57.677-57.678,86.393-86.393c0.122,0.047,0.244,0.095,0.366,0.142
	c0,1.882,0,3.765,0,5.647c0,1.912,0,3.823,0,5.734c0,1.912,0,3.823,0,5.734s0,3.823,0,5.735c0,1.911,0,3.823,0,5.734
	c0,1.969,0,3.939,0,5.908c0,1.912,0,3.823,0,5.735c0,1.912,0,3.823,0,5.734c0,1.911-0.016,3.823,0.005,5.734
	c0.02,1.879-0.092,3.769,0.088,5.736c0.854,0,1.486,0,2.118,0c8.631,0,17.261,0.048,25.891-0.012
	c10.168-0.071,19.9,1.978,29.232,5.919c18.225,7.697,32.703,19.987,43.773,36.29c9.851,14.507,14.888,30.416,14.821,48.154
	c-0.217,58.559-0.082,117.119-0.082,175.678c0,0.521,0.051,1.049-0.01,1.562c-0.112,0.947,0.33,1.458,1.116,1.927
	c1.44,0.857,2.859,1.771,4.191,2.788c13.142,10.021,21.263,22.988,23.143,39.598c0.038,0.337,0.188,0.66,0.287,0.988
	C426.789,401.987,426.789,405.927,426.789,409.865z M108.433,403.762c-0.011,15.829,13.16,29.01,28.989,29.01
	c15.72,0,28.898-13.139,28.966-28.881c0.068-15.796-13.129-29.07-28.923-29.091C121.624,374.779,108.444,387.928,108.433,403.762z
	 M398.053,403.761c-0.023-15.879-13.156-28.994-29-28.961c-15.837,0.034-28.906,13.205-28.865,29.093
	c0.043,15.779,13.142,28.864,28.909,28.879C384.931,432.785,398.075,419.615,398.053,403.761z M137.374,143.043
	c15.835,0.026,29.023-13.138,29.015-28.96c-0.009-15.76-13.099-28.868-28.875-28.915c-15.888-0.047-29.057,13.022-29.081,28.861
	C108.408,129.894,121.499,143.018,137.374,143.043z"/>
</svg>

